<svg width="24" height="23" viewBox="0 0 24 23" fill="none" xmlns="http://www.w3.org/2000/svg">
<path d="M12.12 18.9396L12 19.0614L11.868 18.9396C6.168 13.6901 2.4 10.2189 2.4 6.69891C2.4 4.26294 4.2 2.43597 6.6 2.43597C8.448 2.43597 10.248 3.65395 10.884 5.31041H13.116C13.752 3.65395 15.552 2.43597 17.4 2.43597C19.8 2.43597 21.6 4.26294 21.6 6.69891C21.6 10.2189 17.832 13.6901 12.12 18.9396ZM17.4 0C15.312 0 13.308 0.986567 12 2.53341C10.692 0.986567 8.688 0 6.6 0C2.904 0 0 2.93534 0 6.69891C0 11.2907 4.08 15.0543 10.26 20.7423L12 22.35L13.74 20.7423C19.92 15.0543 24 11.2907 24 6.69891C24 2.93534 21.096 0 17.4 0Z" fill="white"/>
</svg>
