<svg width="20" height="20" viewBox="0 0 20 20" fill="none" xmlns="http://www.w3.org/2000/svg">
<path d="M10.0004 0C10.2277 0 10.4457 0.0903058 10.6065 0.251051C10.7672 0.411797 10.8576 0.629814 10.8576 0.857143C10.8576 1.08447 10.7672 1.30249 10.6065 1.46323C10.4457 1.62398 10.2277 1.71429 10.0004 1.71429C7.80279 1.71429 5.6952 2.58724 4.14127 4.14112C2.58734 5.69499 1.71435 7.80249 1.71435 10C1.71435 12.1975 2.58734 14.305 4.14127 15.8589C5.6952 17.4128 7.80279 18.2857 10.0004 18.2857C10.2277 18.2857 10.4457 18.376 10.6065 18.5368C10.7672 18.6975 10.8576 18.9155 10.8576 19.1429C10.8576 19.3702 10.7672 19.5882 10.6065 19.749C10.4457 19.9097 10.2277 20 10.0004 20C7.34811 20 4.80448 18.9464 2.92904 17.0711C1.05361 15.1957 0 12.6522 0 10C0 7.34784 1.05361 4.8043 2.92904 2.92893C4.80448 1.05357 7.34811 0 10.0004 0Z" fill="#B38ADE"/>
<path d="M15.1092 7.17341C14.9577 7.01092 14.8753 6.79602 14.8792 6.57396C14.8832 6.3519 14.9731 6.14003 15.1302 5.98299C15.2872 5.82594 15.4991 5.73599 15.7212 5.73207C15.9432 5.72815 16.1581 5.81058 16.3206 5.96198L19.7493 9.39055C19.9099 9.55127 20 9.76912 20 9.99627C20 10.2234 19.9099 10.4413 19.7493 10.602L16.3206 14.0306C16.2422 14.1148 16.1475 14.1823 16.0424 14.2292C15.9372 14.276 15.8237 14.3012 15.7086 14.3032C15.5935 14.3053 15.4792 14.2841 15.3725 14.241C15.2658 14.1979 15.1688 14.1337 15.0874 14.0523C15.006 13.9709 14.9418 13.874 14.8987 13.7672C14.8556 13.6605 14.8344 13.5462 14.8365 13.4311C14.8385 13.316 14.8637 13.2025 14.9105 13.0974C14.9574 12.9922 15.0249 12.8976 15.1092 12.8191L17.075 10.8534H7.7146C7.48726 10.8534 7.26923 10.7631 7.10848 10.6024C6.94773 10.4416 6.85742 10.2236 6.85742 9.99627C6.85742 9.76894 6.94773 9.55092 7.10848 9.39018C7.26923 9.22943 7.48726 9.13912 7.7146 9.13912H17.075L15.1092 7.17341Z" fill="#B38ADE"/>
</svg>
