<svg width="21" height="16" viewBox="0 0 21 16" fill="none" xmlns="http://www.w3.org/2000/svg">
<path d="M10.2497 6.66667C9.34352 6.66667 8.47448 6.31548 7.83373 5.69036C7.19298 5.06523 6.83301 4.21739 6.83301 3.33333C6.83301 2.44928 7.19298 1.60143 7.83373 0.976311C8.47448 0.351189 9.34352 0 10.2497 0C11.1558 0 12.0249 0.351189 12.6656 0.976311C13.3064 1.60143 13.6663 2.44928 13.6663 3.33333C13.6663 4.21739 13.3064 5.06523 12.6656 5.69036C12.0249 6.31548 11.1558 6.66667 10.2497 6.66667ZM10.2497 1.33333C9.11534 1.33333 8.19967 2.22667 8.19967 3.33333C8.19967 4.44 9.11534 5.33333 10.2497 5.33333C11.384 5.33333 12.2997 4.44 12.2997 3.33333C12.2997 2.22667 11.384 1.33333 10.2497 1.33333Z" fill="#B38ADE"/>
<path d="M18.45 12C18.0673 12 17.7667 11.7067 17.7667 11.3333C17.7667 10.96 18.0673 10.6667 18.45 10.6667C18.8327 10.6667 19.1333 10.3733 19.1333 10C19.1333 9.11594 18.7734 8.2681 18.1326 7.64298C17.4919 7.01786 16.6228 6.66667 15.7167 6.66667H14.35C13.9673 6.66667 13.6667 6.37333 13.6667 6C13.6667 5.62667 13.9673 5.33333 14.35 5.33333C15.4843 5.33333 16.4 4.44 16.4 3.33333C16.4 2.22667 15.4843 1.33333 14.35 1.33333C13.9673 1.33333 13.6667 1.04 13.6667 0.666667C13.6667 0.293333 13.9673 0 14.35 0C15.2562 0 16.1252 0.351189 16.7659 0.976311C17.4067 1.60143 17.7667 2.44928 17.7667 3.33333C17.7667 4.16 17.466 4.90667 16.9467 5.49333C18.983 6.02667 20.5 7.84 20.5 10C20.5 11.1067 19.5843 12 18.45 12ZM2.05 12C0.915667 12 0 11.1067 0 10C0 7.84 1.50333 6.02667 3.55333 5.49333C3.04767 4.90667 2.73333 4.16 2.73333 3.33333C2.73333 2.44928 3.0933 1.60143 3.73405 0.976311C4.3748 0.351189 5.24384 0 6.15 0C6.53267 0 6.83333 0.293333 6.83333 0.666667C6.83333 1.04 6.53267 1.33333 6.15 1.33333C5.01567 1.33333 4.1 2.22667 4.1 3.33333C4.1 4.44 5.01567 5.33333 6.15 5.33333C6.53267 5.33333 6.83333 5.62667 6.83333 6C6.83333 6.37333 6.53267 6.66667 6.15 6.66667H4.78333C3.87718 6.66667 3.00813 7.01786 2.36739 7.64298C1.72664 8.2681 1.36667 9.11594 1.36667 10C1.36667 10.3733 1.66733 10.6667 2.05 10.6667C2.43267 10.6667 2.73333 10.96 2.73333 11.3333C2.73333 11.7067 2.43267 12 2.05 12ZM14.35 16H6.15C5.01567 16 4.1 15.1067 4.1 14V12.6667C4.1 10.0933 6.24567 8 8.88333 8H11.6167C14.2543 8 16.4 10.0933 16.4 12.6667V14C16.4 15.1067 15.4843 16 14.35 16ZM8.88333 9.33333C7.97718 9.33333 7.10813 9.68452 6.46739 10.3096C5.82664 10.9348 5.46667 11.7826 5.46667 12.6667V14C5.46667 14.3733 5.76733 14.6667 6.15 14.6667H14.35C14.7327 14.6667 15.0333 14.3733 15.0333 14V12.6667C15.0333 11.7826 14.6734 10.9348 14.0326 10.3096C13.3919 9.68452 12.5228 9.33333 11.6167 9.33333H8.88333Z" fill="#B38ADE"/>
</svg>
