<svg width="20" height="22" viewBox="0 0 20 22" fill="none" xmlns="http://www.w3.org/2000/svg">
<path d="M10 16.5418C10.3542 16.5418 10.6512 16.4348 10.8912 16.221C11.1312 16.0071 11.2508 15.7427 11.25 15.4278V10.9722C11.25 10.6565 11.13 10.3918 10.89 10.1779C10.65 9.96405 10.3533 9.85749 10 9.85823C9.64583 9.85823 9.34875 9.96517 9.10875 10.179C8.86875 10.3929 8.74917 10.6573 8.75 10.9722V15.4278C8.75 15.7435 8.87 16.0082 9.11 16.2221C9.35 16.4359 9.64667 16.5425 10 16.5418ZM10 7.63038C10.3542 7.63038 10.6512 7.52344 10.8912 7.30957C11.1312 7.0957 11.2508 6.83132 11.25 6.51646C11.25 6.20084 11.13 5.9361 10.89 5.72223C10.65 5.50835 10.3533 5.40179 10 5.40253C9.64583 5.40253 9.34875 5.50947 9.10875 5.72334C8.86875 5.93721 8.74917 6.20159 8.75 6.51646C8.75 6.83207 8.87 7.09681 9.11 7.31068C9.35 7.52456 9.64667 7.63112 10 7.63038ZM10 22C9.85417 22 9.71875 21.9907 9.59375 21.9722C9.46875 21.9536 9.34375 21.9257 9.21875 21.8886C6.40625 21.0532 4.16667 19.5074 2.5 17.2513C0.833333 14.9953 0 12.568 0 9.96962V4.70633C0 4.24219 0.15125 3.82447 0.45375 3.45316C0.75625 3.08186 1.14667 2.81266 1.625 2.64557L9.125 0.139241C9.41667 0.0464135 9.70833 0 10 0C10.2917 0 10.5833 0.0464135 10.875 0.139241L18.375 2.64557C18.8542 2.81266 19.245 3.08186 19.5475 3.45316C19.85 3.82447 20.0008 4.24219 20 4.70633V9.96962C20 12.5688 19.1667 14.9964 17.5 17.2525C15.8333 19.5085 13.5937 21.0539 10.7812 21.8886C10.6562 21.9257 10.5312 21.9536 10.4062 21.9722C10.2812 21.9907 10.1458 22 10 22ZM10 19.7722C12.1667 19.1595 13.9583 17.9342 15.375 16.0962C16.7917 14.2582 17.5 12.216 17.5 9.96962V4.70633L10 2.2L2.5 4.70633V9.96962C2.5 12.216 3.20833 14.2582 4.625 16.0962C6.04167 17.9342 7.83333 19.1595 10 19.7722Z" fill="#B38ADE"/>
</svg>
