<svg width="22" height="22" viewBox="0 0 22 22" fill="none" xmlns="http://www.w3.org/2000/svg">
<path d="M1 7.25H21L19.9563 18.7262C19.8998 19.3474 19.6132 19.925 19.1528 20.3457C18.6923 20.7664 18.0912 20.9998 17.4675 21H4.5325C3.9088 20.9998 3.30771 20.7664 2.84725 20.3457C2.38678 19.925 2.1002 19.3474 2.04375 18.7262L1 7.25Z" stroke="white" stroke-width="1.5" stroke-linejoin="round"/>
<path d="M6 9.75V6C6 4.67392 6.52678 3.40215 7.46447 2.46447C8.40215 1.52678 9.67392 1 11 1C12.3261 1 13.5979 1.52678 14.5355 2.46447C15.4732 3.40215 16 4.67392 16 6V9.75" stroke="white" stroke-width="1.5" stroke-linecap="round"/>
</svg>
