<svg width="20" height="24" viewBox="0 0 20 24" fill="none" xmlns="http://www.w3.org/2000/svg">
<path d="M4.23688 17.4464C2.5012 16.2713 1.20031 14.5962 0.522667 12.6637C-0.154975 10.7313 -0.174167 8.64192 0.467872 6.69831C1.10991 4.7547 2.37983 3.05781 4.09365 1.8535C5.80746 0.649185 7.87615 0 10 0C12.1238 0 14.1925 0.649185 15.9064 1.8535C17.6202 3.05781 18.8901 4.7547 19.5321 6.69831C20.1742 8.64192 20.155 10.7313 19.4773 12.6637C18.7997 14.5962 17.4988 16.2713 15.7631 17.4464L18.3669 23.1587C18.4087 23.2502 18.4261 23.3502 18.4174 23.4497C18.4088 23.5492 18.3745 23.6451 18.3175 23.7287C18.2605 23.8122 18.1827 23.8808 18.0911 23.9282C17.9996 23.9755 17.8971 24.0002 17.7931 24H2.20562C2.10177 24.0001 1.99951 23.9754 1.9081 23.9281C1.81668 23.8808 1.73899 23.8124 1.68204 23.729C1.62509 23.6456 1.59068 23.5499 1.58192 23.4506C1.57316 23.3512 1.59033 23.2513 1.63188 23.1599L4.23688 17.4464ZM12.6556 16.6148L14.3206 15.4855C15.6228 14.6044 16.5989 13.3482 17.1075 11.8988C17.6161 10.4494 17.6308 8.88216 17.1494 7.42422C16.668 5.96628 15.7156 4.69337 14.4302 3.78995C13.1447 2.88653 11.5931 2.39953 10 2.39953C8.40693 2.39953 6.85525 2.88653 5.56981 3.78995C4.28437 4.69337 3.33196 5.96628 2.85059 7.42422C2.36922 8.88216 2.3839 10.4494 2.8925 11.8988C3.40111 13.3482 4.37722 14.6044 5.67937 15.4855L7.34312 16.6148L5.07187 21.5999H14.9269L12.6556 16.6148ZM5.14813 10.7632L7.57312 10.1812C7.7077 10.7013 8.01969 11.1631 8.45939 11.4932C8.89909 11.8233 9.4412 12.0027 9.99937 12.0027C10.5575 12.0027 11.0997 11.8233 11.5394 11.4932C11.9791 11.1631 12.291 10.7013 12.4256 10.1812L14.8506 10.7632C14.5787 11.8007 13.9537 12.7213 13.0749 13.379C12.1961 14.0367 11.1137 14.3939 9.99937 14.3939C8.88507 14.3939 7.80267 14.0367 6.92383 13.379C6.045 12.7213 5.42006 11.8007 5.14813 10.7632Z" fill="#B38ADE"/>
</svg>
