<svg width="20" height="20" viewBox="0 0 20 20" fill="none" xmlns="http://www.w3.org/2000/svg">
<path d="M10 20C4.48571 20 0 15.5143 0 10C0 4.48571 4.48571 0 10 0C15.5143 0 20 4.48571 20 10C20 15.5143 15.5143 20 10 20ZM10 1.42857C5.27143 1.42857 1.42857 5.27143 1.42857 10C1.42857 14.7286 5.27143 18.5714 10 18.5714C14.7286 18.5714 18.5714 14.7286 18.5714 10C18.5714 5.27143 14.7286 1.42857 10 1.42857Z" fill="#B38ADE"/>
<path d="M12.858 13.5738C12.7295 13.5738 12.6009 13.5452 12.4866 13.4738L8.91517 11.3309C8.80939 11.2674 8.72208 11.1772 8.66193 11.0695C8.60178 10.9617 8.57089 10.8401 8.57231 10.7167V5.00237C8.57231 4.60237 8.8866 4.28809 9.2866 4.28809C9.6866 4.28809 10.0009 4.60237 10.0009 5.00237V10.3167L13.2295 12.2452C13.3624 12.3267 13.4652 12.4494 13.5222 12.5946C13.5792 12.7397 13.5874 12.8995 13.5454 13.0498C13.5034 13.2 13.4135 13.3324 13.2895 13.427C13.1655 13.5215 13.014 13.5731 12.858 13.5738Z" fill="#B38ADE"/>
</svg>
