<svg width="360" height="193" viewBox="0 0 360 193" fill="none" xmlns="http://www.w3.org/2000/svg">
<rect x="-26.709" y="95.4922" width="403.55" height="100" transform="rotate(-13.5956 -26.709 95.4922)" fill="#B38ADE"/>
<path d="M28.7988 94.3086C28.7988 94.0352 28.7565 93.791 28.6719 93.5762C28.5938 93.3548 28.4473 93.1562 28.2324 92.9805C28.0241 92.7982 27.7279 92.6224 27.3438 92.4531C26.9661 92.2773 26.4779 92.0951 25.8789 91.9062C25.2148 91.6979 24.5964 91.4635 24.0234 91.2031C23.4505 90.9427 22.946 90.64 22.5098 90.2949C22.0801 89.9499 21.7448 89.5527 21.5039 89.1035C21.263 88.6478 21.1426 88.1204 21.1426 87.5215C21.1426 86.9355 21.2663 86.4017 21.5137 85.9199C21.7676 85.4382 22.1257 85.0247 22.5879 84.6797C23.0501 84.3281 23.5938 84.0579 24.2188 83.8691C24.8503 83.6803 25.5469 83.5859 26.3086 83.5859C27.3633 83.5859 28.2747 83.778 29.043 84.1621C29.8177 84.5462 30.4167 85.0671 30.8398 85.7246C31.263 86.3822 31.4746 87.1211 31.4746 87.9414H28.7988C28.7988 87.4987 28.7044 87.1081 28.5156 86.7695C28.3333 86.431 28.0534 86.1641 27.6758 85.9688C27.3047 85.7734 26.8359 85.6758 26.2695 85.6758C25.7227 85.6758 25.2669 85.7572 24.9023 85.9199C24.5443 86.0827 24.2741 86.304 24.0918 86.584C23.916 86.8639 23.8281 87.1764 23.8281 87.5215C23.8281 87.7819 23.89 88.0163 24.0137 88.2246C24.1374 88.4264 24.3229 88.6185 24.5703 88.8008C24.8177 88.9766 25.1237 89.1426 25.4883 89.2988C25.8594 89.4486 26.2891 89.5983 26.7773 89.748C27.5586 89.9824 28.2422 90.2428 28.8281 90.5293C29.4206 90.8158 29.9121 91.1413 30.3027 91.5059C30.6999 91.8704 30.9961 92.2806 31.1914 92.7363C31.3932 93.1921 31.4941 93.7096 31.4941 94.2891C31.4941 94.901 31.3737 95.4479 31.1328 95.9297C30.8919 96.4115 30.5469 96.8216 30.0977 97.1602C29.6484 97.4987 29.1081 97.7559 28.4766 97.9316C27.8516 98.1074 27.1517 98.1953 26.377 98.1953C25.6868 98.1953 25.0033 98.1042 24.3262 97.9219C23.6556 97.7331 23.0469 97.4531 22.5 97.082C21.9531 96.7044 21.5169 96.2292 21.1914 95.6562C20.8659 95.0768 20.7031 94.3997 20.7031 93.625H23.3984C23.3984 94.0742 23.4701 94.4583 23.6133 94.7773C23.763 95.0898 23.9714 95.347 24.2383 95.5488C24.5117 95.7441 24.8307 95.8874 25.1953 95.9785C25.5599 96.0697 25.9538 96.1152 26.377 96.1152C26.9238 96.1152 27.373 96.0404 27.7246 95.8906C28.0827 95.7344 28.3496 95.5195 28.5254 95.2461C28.7077 94.9727 28.7988 94.6602 28.7988 94.3086ZM37.7819 98.1953C36.9811 98.1953 36.2617 98.0651 35.6237 97.8047C34.9857 97.5443 34.4421 97.1829 33.9928 96.7207C33.5501 96.252 33.2083 95.7083 32.9674 95.0898C32.7331 94.4648 32.6159 93.7943 32.6159 93.0781V92.6875C32.6159 91.8737 32.7331 91.1348 32.9674 90.4707C33.2018 89.8001 33.5339 89.224 33.9635 88.7422C34.3932 88.2604 34.9076 87.8893 35.5065 87.6289C36.1055 87.3685 36.7663 87.2383 37.4889 87.2383C38.2376 87.2383 38.8984 87.3652 39.4714 87.6191C40.0443 87.8665 40.5228 88.2181 40.9069 88.6738C41.291 89.1296 41.5807 89.6764 41.776 90.3145C41.9714 90.946 42.069 91.6458 42.069 92.4141V93.498H33.7878V91.7207H39.5299V91.5254C39.5169 91.1152 39.4388 90.7409 39.2956 90.4023C39.1523 90.0573 38.931 89.7839 38.6315 89.582C38.332 89.3737 37.9447 89.2695 37.4694 89.2695C37.0853 89.2695 36.75 89.3542 36.4635 89.5234C36.1836 89.6862 35.9492 89.9206 35.7604 90.2266C35.5781 90.526 35.4414 90.8841 35.3503 91.3008C35.2591 91.7174 35.2135 92.1797 35.2135 92.6875V93.0781C35.2135 93.5208 35.2721 93.931 35.3893 94.3086C35.513 94.6862 35.6921 95.015 35.9264 95.2949C36.1673 95.5684 36.4538 95.7832 36.7858 95.9395C37.1243 96.0892 37.5085 96.1641 37.9382 96.1641C38.4785 96.1641 38.9668 96.0599 39.403 95.8516C39.8457 95.6367 40.2298 95.321 40.5553 94.9043L41.8542 96.252C41.6328 96.5775 41.3333 96.89 40.9557 97.1895C40.5846 97.4889 40.1354 97.7331 39.6081 97.9219C39.0807 98.1042 38.472 98.1953 37.7819 98.1953ZM48.4642 87.4336V89.2891H42.4095V87.4336H48.4642ZM44.0306 84.8359H46.6185V94.9531C46.6185 95.2656 46.6608 95.5065 46.7454 95.6758C46.8301 95.8451 46.957 95.959 47.1263 96.0176C47.2956 96.0762 47.4974 96.1055 47.7318 96.1055C47.901 96.1055 48.0573 96.0957 48.2005 96.0762C48.3438 96.0566 48.4642 96.0371 48.5618 96.0176L48.5716 97.9512C48.3568 98.0228 48.1126 98.0814 47.8392 98.127C47.5723 98.1725 47.2695 98.1953 46.931 98.1953C46.3516 98.1953 45.8438 98.0977 45.4076 97.9023C44.9714 97.7005 44.6328 97.3783 44.3919 96.9355C44.151 96.4863 44.0306 95.8939 44.0306 95.1582V84.8359ZM57.5924 96.8281L60.4245 87.4336H63.1882L58.9499 99.6016C58.8522 99.862 58.7253 100.145 58.569 100.451C58.4193 100.757 58.2174 101.047 57.9635 101.32C57.7096 101.6 57.3906 101.828 57.0065 102.004C56.6289 102.18 56.1699 102.268 55.6296 102.268C55.3952 102.268 55.1869 102.251 55.0046 102.219C54.8223 102.186 54.6302 102.144 54.4284 102.092V100.158C54.4935 100.165 54.5684 100.168 54.653 100.168C54.7441 100.174 54.8223 100.178 54.8874 100.178C55.265 100.178 55.5775 100.132 55.8249 100.041C56.0723 99.9564 56.2708 99.8164 56.4206 99.6211C56.5768 99.4323 56.707 99.1849 56.8112 98.8789L57.5924 96.8281ZM56.196 87.4336L58.5885 95.2168L59.0085 97.9414L57.2311 98.2637L53.4128 87.4336H56.196ZM63.4896 92.8242V92.6191C63.4896 91.8444 63.6003 91.1315 63.8216 90.4805C64.043 89.8229 64.3652 89.2533 64.7884 88.7715C65.2116 88.2897 65.7292 87.9154 66.3411 87.6484C66.9531 87.375 67.6497 87.2383 68.431 87.2383C69.2253 87.2383 69.9284 87.375 70.5404 87.6484C71.1589 87.9154 71.6797 88.2897 72.1029 88.7715C72.526 89.2533 72.8483 89.8229 73.0697 90.4805C73.291 91.1315 73.4017 91.8444 73.4017 92.6191V92.8242C73.4017 93.5924 73.291 94.3053 73.0697 94.9629C72.8483 95.6139 72.526 96.1836 72.1029 96.6719C71.6797 97.1536 71.1621 97.528 70.5501 97.7949C69.9381 98.0618 69.2383 98.1953 68.4505 98.1953C67.6693 98.1953 66.9694 98.0618 66.3509 97.7949C65.7324 97.528 65.2116 97.1536 64.7884 96.6719C64.3652 96.1836 64.043 95.6139 63.8216 94.9629C63.6003 94.3053 63.4896 93.5924 63.4896 92.8242ZM66.0677 92.6191V92.8242C66.0677 93.2865 66.1133 93.7194 66.2044 94.123C66.2956 94.5267 66.4355 94.8815 66.6243 95.1875C66.8131 95.4935 67.0573 95.7344 67.3568 95.9102C67.6628 96.0794 68.0273 96.1641 68.4505 96.1641C68.8672 96.1641 69.2253 96.0794 69.5247 95.9102C69.8242 95.7344 70.0684 95.4935 70.2572 95.1875C70.4525 94.8815 70.5957 94.5267 70.6868 94.123C70.778 93.7194 70.8236 93.2865 70.8236 92.8242V92.6191C70.8236 92.1634 70.778 91.737 70.6868 91.3398C70.5957 90.9362 70.4525 90.5814 70.2572 90.2754C70.0684 89.9629 69.821 89.7188 69.515 89.543C69.2155 89.3607 68.8542 89.2695 68.431 89.2695C68.0143 89.2695 67.6562 89.3607 67.3568 89.543C67.0573 89.7188 66.8131 89.9629 66.6243 90.2754C66.4355 90.5814 66.2956 90.9362 66.2044 91.3398C66.1133 91.737 66.0677 92.1634 66.0677 92.6191ZM81.2324 95.4902V87.4336H83.8301V98H81.3887L81.2324 95.4902ZM81.5645 93.3027L82.3652 93.2832C82.3652 93.9928 82.2871 94.6471 82.1309 95.2461C81.9746 95.8451 81.7305 96.3659 81.3984 96.8086C81.0729 97.2448 80.6595 97.5866 80.1582 97.834C79.6569 98.0749 79.0645 98.1953 78.3809 98.1953C77.86 98.1953 77.3848 98.1237 76.9551 97.9805C76.5254 97.8307 76.1543 97.5996 75.8418 97.2871C75.5358 96.9681 75.2982 96.5612 75.1289 96.0664C74.9596 95.5651 74.875 94.9629 74.875 94.2598V87.4336H77.4531V94.2793C77.4531 94.6309 77.4922 94.9238 77.5703 95.1582C77.6549 95.3926 77.7689 95.5846 77.9121 95.7344C78.0618 95.8776 78.2344 95.9818 78.4297 96.0469C78.6315 96.1055 78.8464 96.1348 79.0742 96.1348C79.6992 96.1348 80.1908 96.0111 80.5488 95.7637C80.9134 95.5098 81.1738 95.1712 81.3301 94.748C81.4863 94.3184 81.5645 93.8366 81.5645 93.3027ZM88.36 89.5918V98H85.7819V87.4336H88.2233L88.36 89.5918ZM91.5729 87.3652L91.5339 89.7676C91.3906 89.7415 91.2279 89.722 91.0456 89.709C90.8698 89.696 90.7038 89.6895 90.5475 89.6895C90.1504 89.6895 89.8021 89.7448 89.5026 89.8555C89.2031 89.9596 88.9525 90.1126 88.7506 90.3145C88.5553 90.5163 88.4056 90.7637 88.3014 91.0566C88.1973 91.3431 88.1387 91.6686 88.1256 92.0332L87.569 91.9648C87.569 91.2943 87.6374 90.6725 87.7741 90.0996C87.9108 89.5267 88.1094 89.0254 88.3698 88.5957C88.6302 88.166 88.9557 87.834 89.3464 87.5996C89.7435 87.3587 90.1992 87.2383 90.7135 87.2383C90.8568 87.2383 91.0098 87.2513 91.1725 87.2773C91.3418 87.2969 91.4753 87.3262 91.5729 87.3652ZM99.8809 89.4648V102.062H97.293V87.4336H99.6855L99.8809 89.4648ZM106.668 92.6094V92.8145C106.668 93.5827 106.577 94.2956 106.395 94.9531C106.219 95.6042 105.958 96.1738 105.613 96.6621C105.268 97.1439 104.839 97.5215 104.324 97.7949C103.816 98.0618 103.23 98.1953 102.566 98.1953C101.915 98.1953 101.349 98.0716 100.867 97.8242C100.385 97.5703 99.9785 97.2122 99.6465 96.75C99.3145 96.2878 99.0475 95.7507 98.8457 95.1387C98.6504 94.5202 98.5039 93.8464 98.4062 93.1172V92.4629C98.5039 91.6882 98.6504 90.985 98.8457 90.3535C99.0475 89.7155 99.3145 89.1654 99.6465 88.7031C99.9785 88.2344 100.382 87.873 100.857 87.6191C101.339 87.3652 101.902 87.2383 102.547 87.2383C103.217 87.2383 103.807 87.3652 104.314 87.6191C104.829 87.873 105.262 88.2376 105.613 88.7129C105.965 89.1882 106.229 89.7546 106.404 90.4121C106.58 91.0697 106.668 91.8021 106.668 92.6094ZM104.08 92.8145V92.6094C104.08 92.1406 104.038 91.7077 103.953 91.3105C103.868 90.9069 103.738 90.5553 103.562 90.2559C103.387 89.9499 103.159 89.7122 102.879 89.543C102.599 89.3737 102.26 89.2891 101.863 89.2891C101.466 89.2891 101.124 89.3542 100.838 89.4844C100.551 89.6146 100.317 89.8001 100.135 90.041C99.9525 90.2819 99.8092 90.5684 99.7051 90.9004C99.6074 91.2259 99.5423 91.5872 99.5098 91.9844V93.6055C99.5684 94.0872 99.6823 94.5202 99.8516 94.9043C100.021 95.2884 100.268 95.5944 100.594 95.8223C100.926 96.0501 101.355 96.1641 101.883 96.1641C102.28 96.1641 102.618 96.0762 102.898 95.9004C103.178 95.7246 103.406 95.4837 103.582 95.1777C103.758 94.8652 103.885 94.5072 103.963 94.1035C104.041 93.6999 104.08 93.2702 104.08 92.8145ZM110.798 89.5918V98H108.219V87.4336H110.661L110.798 89.5918ZM114.01 87.3652L113.971 89.7676C113.828 89.7415 113.665 89.722 113.483 89.709C113.307 89.696 113.141 89.6895 112.985 89.6895C112.588 89.6895 112.24 89.7448 111.94 89.8555C111.641 89.9596 111.39 90.1126 111.188 90.3145C110.993 90.5163 110.843 90.7637 110.739 91.0566C110.635 91.3431 110.576 91.6686 110.563 92.0332L110.007 91.9648C110.007 91.2943 110.075 90.6725 110.212 90.0996C110.348 89.5267 110.547 89.0254 110.807 88.5957C111.068 88.166 111.393 87.834 111.784 87.5996C112.181 87.3587 112.637 87.2383 113.151 87.2383C113.294 87.2383 113.447 87.2513 113.61 87.2773C113.779 87.2969 113.913 87.3262 114.01 87.3652ZM114.361 92.8242V92.6191C114.361 91.8444 114.471 91.1315 114.693 90.4805C114.914 89.8229 115.236 89.2533 115.66 88.7715C116.083 88.2897 116.6 87.9154 117.212 87.6484C117.824 87.375 118.521 87.2383 119.302 87.2383C120.096 87.2383 120.799 87.375 121.411 87.6484C122.03 87.9154 122.551 88.2897 122.974 88.7715C123.397 89.2533 123.719 89.8229 123.941 90.4805C124.162 91.1315 124.273 91.8444 124.273 92.6191V92.8242C124.273 93.5924 124.162 94.3053 123.941 94.9629C123.719 95.6139 123.397 96.1836 122.974 96.6719C122.551 97.1536 122.033 97.528 121.421 97.7949C120.809 98.0618 120.109 98.1953 119.322 98.1953C118.54 98.1953 117.84 98.0618 117.222 97.7949C116.604 97.528 116.083 97.1536 115.66 96.6719C115.236 96.1836 114.914 95.6139 114.693 94.9629C114.471 94.3053 114.361 93.5924 114.361 92.8242ZM116.939 92.6191V92.8242C116.939 93.2865 116.984 93.7194 117.076 94.123C117.167 94.5267 117.307 94.8815 117.495 95.1875C117.684 95.4935 117.928 95.7344 118.228 95.9102C118.534 96.0794 118.898 96.1641 119.322 96.1641C119.738 96.1641 120.096 96.0794 120.396 95.9102C120.695 95.7344 120.939 95.4935 121.128 95.1875C121.324 94.8815 121.467 94.5267 121.558 94.123C121.649 93.7194 121.695 93.2865 121.695 92.8242V92.6191C121.695 92.1634 121.649 91.737 121.558 91.3398C121.467 90.9362 121.324 90.5814 121.128 90.2754C120.939 89.9629 120.692 89.7188 120.386 89.543C120.087 89.3607 119.725 89.2695 119.302 89.2695C118.885 89.2695 118.527 89.3607 118.228 89.543C117.928 89.7188 117.684 89.9629 117.495 90.2754C117.307 90.5814 117.167 90.9362 117.076 91.3398C116.984 91.737 116.939 92.1634 116.939 92.6191ZM129.193 98H126.596V86.457C126.596 85.6628 126.749 84.9954 127.055 84.4551C127.361 83.9082 127.797 83.4948 128.363 83.2148C128.93 82.9349 129.597 82.7949 130.365 82.7949C130.619 82.7949 130.86 82.8112 131.088 82.8438C131.322 82.8763 131.553 82.9219 131.781 82.9805L131.732 84.9434C131.609 84.9108 131.472 84.888 131.322 84.875C131.179 84.862 131.02 84.8555 130.844 84.8555C130.492 84.8555 130.193 84.9173 129.945 85.041C129.698 85.1647 129.509 85.347 129.379 85.5879C129.255 85.8223 129.193 86.112 129.193 86.457V98ZM131.332 87.4336V89.2891H125.004V87.4336H131.332ZM135.325 87.4336V98H132.737V87.4336H135.325ZM132.561 84.6699C132.561 84.2858 132.691 83.9668 132.952 83.7129C133.219 83.459 133.577 83.332 134.026 83.332C134.475 83.332 134.83 83.459 135.09 83.7129C135.357 83.9668 135.491 84.2858 135.491 84.6699C135.491 85.0475 135.357 85.3633 135.09 85.6172C134.83 85.8711 134.475 85.998 134.026 85.998C133.577 85.998 133.219 85.8711 132.952 85.6172C132.691 85.3633 132.561 85.0475 132.561 84.6699ZM140.187 83V98H137.599V83H140.187ZM147.061 98.1953C146.26 98.1953 145.54 98.0651 144.902 97.8047C144.264 97.5443 143.721 97.1829 143.271 96.7207C142.829 96.252 142.487 95.7083 142.246 95.0898C142.012 94.4648 141.895 93.7943 141.895 93.0781V92.6875C141.895 91.8737 142.012 91.1348 142.246 90.4707C142.48 89.8001 142.812 89.224 143.242 88.7422C143.672 88.2604 144.186 87.8893 144.785 87.6289C145.384 87.3685 146.045 87.2383 146.768 87.2383C147.516 87.2383 148.177 87.3652 148.75 87.6191C149.323 87.8665 149.801 88.2181 150.186 88.6738C150.57 89.1296 150.859 89.6764 151.055 90.3145C151.25 90.946 151.348 91.6458 151.348 92.4141V93.498H143.066V91.7207H148.809V91.5254C148.796 91.1152 148.717 90.7409 148.574 90.4023C148.431 90.0573 148.21 89.7839 147.91 89.582C147.611 89.3737 147.223 89.2695 146.748 89.2695C146.364 89.2695 146.029 89.3542 145.742 89.5234C145.462 89.6862 145.228 89.9206 145.039 90.2266C144.857 90.526 144.72 90.8841 144.629 91.3008C144.538 91.7174 144.492 92.1797 144.492 92.6875V93.0781C144.492 93.5208 144.551 93.931 144.668 94.3086C144.792 94.6862 144.971 95.015 145.205 95.2949C145.446 95.5684 145.732 95.7832 146.064 95.9395C146.403 96.0892 146.787 96.1641 147.217 96.1641C147.757 96.1641 148.245 96.0599 148.682 95.8516C149.124 95.6367 149.508 95.321 149.834 94.9043L151.133 96.252C150.911 96.5775 150.612 96.89 150.234 97.1895C149.863 97.4889 149.414 97.7331 148.887 97.9219C148.359 98.1042 147.751 98.1953 147.061 98.1953Z" fill="white"/>
<path d="M131.055 70.3906C129.453 70.3906 128.014 70.1302 126.738 69.6094C125.462 69.0885 124.375 68.3659 123.477 67.4414C122.591 66.5039 121.908 65.4167 121.426 64.1797C120.957 62.9297 120.723 61.5885 120.723 60.1562V59.375C120.723 57.7474 120.957 56.2695 121.426 54.9414C121.895 53.6003 122.559 52.4479 123.418 51.4844C124.277 50.5208 125.306 49.7786 126.504 49.2578C127.702 48.737 129.023 48.4766 130.469 48.4766C131.966 48.4766 133.288 48.7305 134.434 49.2383C135.579 49.7331 136.536 50.4362 137.305 51.3477C138.073 52.2591 138.652 53.3529 139.043 54.6289C139.434 55.8919 139.629 57.2917 139.629 58.8281V60.9961H123.066V57.4414H134.551V57.0508C134.525 56.2305 134.368 55.4818 134.082 54.8047C133.796 54.1146 133.353 53.5677 132.754 53.1641C132.155 52.7474 131.38 52.5391 130.43 52.5391C129.661 52.5391 128.991 52.7083 128.418 53.0469C127.858 53.3724 127.389 53.8411 127.012 54.4531C126.647 55.0521 126.374 55.7682 126.191 56.6016C126.009 57.4349 125.918 58.3594 125.918 59.375V60.1562C125.918 61.0417 126.035 61.862 126.27 62.6172C126.517 63.3724 126.875 64.0299 127.344 64.5898C127.826 65.1367 128.398 65.5664 129.062 65.8789C129.74 66.1784 130.508 66.3281 131.367 66.3281C132.448 66.3281 133.424 66.1198 134.297 65.7031C135.182 65.2734 135.951 64.6419 136.602 63.8086L139.199 66.5039C138.757 67.1549 138.158 67.7799 137.402 68.3789C136.66 68.9779 135.762 69.4661 134.707 69.8438C133.652 70.2083 132.435 70.3906 131.055 70.3906Z" fill="url(#paint0_linear_856_4909)"/>
<path d="M33.8919 59.6289H26.5677V55.4102H33.8919C35.0898 55.4102 36.0599 55.2148 36.8021 54.8242C37.5573 54.4206 38.1107 53.8737 38.4622 53.1836C38.8138 52.4805 38.9896 51.6797 38.9896 50.7812C38.9896 49.9089 38.8138 49.0951 38.4622 48.3398C38.1107 47.5846 37.5573 46.9727 36.8021 46.5039C36.0599 46.0352 35.0898 45.8008 33.8919 45.8008H28.3255V70H22.9544V41.5625H33.8919C36.1055 41.5625 37.9935 41.9596 39.556 42.7539C41.1315 43.5352 42.3294 44.6224 43.1497 46.0156C43.9831 47.3958 44.3997 48.9714 44.3997 50.7422C44.3997 52.5781 43.9831 54.1602 43.1497 55.4883C42.3294 56.8164 41.1315 57.8385 39.556 58.5547C37.9935 59.2708 36.1055 59.6289 33.8919 59.6289ZM53.0508 53.1836V70H47.8945V48.8672H52.7773L53.0508 53.1836ZM59.4766 48.7305L59.3984 53.5352C59.112 53.4831 58.7865 53.444 58.4219 53.418C58.0703 53.3919 57.7383 53.3789 57.4258 53.3789C56.6315 53.3789 55.9349 53.4896 55.3359 53.7109C54.737 53.9193 54.2357 54.2253 53.832 54.6289C53.4414 55.0326 53.1419 55.5273 52.9336 56.1133C52.7253 56.6862 52.6081 57.3372 52.582 58.0664L51.4688 57.9297C51.4688 56.5885 51.6055 55.3451 51.8789 54.1992C52.1523 53.0534 52.5495 52.0508 53.0703 51.1914C53.5911 50.332 54.2422 49.668 55.0234 49.1992C55.8177 48.7174 56.7292 48.4766 57.7578 48.4766C58.0443 48.4766 58.3503 48.5026 58.6758 48.5547C59.0143 48.5938 59.2812 48.6523 59.4766 48.7305ZM60.5104 59.6484V59.2383C60.5104 57.6888 60.7318 56.263 61.1745 54.9609C61.6172 53.6458 62.2617 52.5065 63.1081 51.543C63.9544 50.5794 64.9896 49.8307 66.2135 49.2969C67.4375 48.75 68.8307 48.4766 70.3932 48.4766C71.9818 48.4766 73.388 48.75 74.612 49.2969C75.849 49.8307 76.8906 50.5794 77.737 51.543C78.5833 52.5065 79.2279 53.6458 79.6706 54.9609C80.1133 56.263 80.3346 57.6888 80.3346 59.2383V59.6484C80.3346 61.1849 80.1133 62.6107 79.6706 63.9258C79.2279 65.2279 78.5833 66.3672 77.737 67.3438C76.8906 68.3073 75.8555 69.056 74.6315 69.5898C73.4075 70.1237 72.0078 70.3906 70.4323 70.3906C68.8698 70.3906 67.47 70.1237 66.2331 69.5898C64.9961 69.056 63.9544 68.3073 63.1081 67.3438C62.2617 66.3672 61.6172 65.2279 61.1745 63.9258C60.7318 62.6107 60.5104 61.1849 60.5104 59.6484ZM65.6667 59.2383V59.6484C65.6667 60.5729 65.7578 61.4388 65.9401 62.2461C66.1224 63.0534 66.4023 63.763 66.7799 64.375C67.1575 64.987 67.6458 65.4688 68.2448 65.8203C68.8568 66.1589 69.5859 66.3281 70.4323 66.3281C71.2656 66.3281 71.9818 66.1589 72.5807 65.8203C73.1797 65.4688 73.668 64.987 74.0456 64.375C74.4362 63.763 74.7227 63.0534 74.9049 62.2461C75.0872 61.4388 75.1784 60.5729 75.1784 59.6484V59.2383C75.1784 58.3268 75.0872 57.474 74.9049 56.6797C74.7227 55.8724 74.4362 55.1628 74.0456 54.5508C73.668 53.9258 73.1732 53.4375 72.5612 53.0859C71.9622 52.7214 71.2396 52.5391 70.3932 52.5391C69.5599 52.5391 68.8437 52.7214 68.2448 53.0859C67.6458 53.4375 67.1575 53.9258 66.7799 54.5508C66.4023 55.1628 66.1224 55.8724 65.9401 56.6797C65.7578 57.474 65.6667 58.3268 65.6667 59.2383Z" fill="#B38ADE"/>
<path d="M91.4727 70H86.2773V46.9141C86.2773 45.3255 86.5833 43.9909 87.1953 42.9102C87.8073 41.8164 88.6797 40.9896 89.8125 40.4297C90.9453 39.8698 92.2799 39.5898 93.8164 39.5898C94.3242 39.5898 94.806 39.6224 95.2617 39.6875C95.7305 39.7526 96.1927 39.8438 96.6484 39.9609L96.5508 43.8867C96.3034 43.8216 96.0299 43.776 95.7305 43.75C95.444 43.724 95.125 43.7109 94.7734 43.7109C94.0703 43.7109 93.4714 43.8346 92.9766 44.082C92.4818 44.3294 92.1042 44.694 91.8438 45.1758C91.5964 45.6445 91.4727 46.224 91.4727 46.9141V70ZM95.75 48.8672V52.5781H83.0938V48.8672H95.75Z" fill="url(#paint1_linear_856_4909)"/>
<path d="M105.098 48.8672V70H99.9219V48.8672H105.098ZM99.5703 43.3398C99.5703 42.5716 99.8307 41.9336 100.352 41.4258C100.885 40.918 101.602 40.6641 102.5 40.6641C103.398 40.6641 104.108 40.918 104.629 41.4258C105.163 41.9336 105.43 42.5716 105.43 43.3398C105.43 44.0951 105.163 44.7266 104.629 45.2344C104.108 45.7422 103.398 45.9961 102.5 45.9961C101.602 45.9961 100.885 45.7422 100.352 45.2344C99.8307 44.7266 99.5703 44.0951 99.5703 43.3398Z" fill="url(#paint2_linear_856_4909)"/>
<path d="M116.098 40V70H110.922V40H116.098Z" fill="url(#paint3_linear_856_4909)"/>
<defs>
<linearGradient id="paint0_linear_856_4909" x1="116" y1="33" x2="130" y2="80" gradientUnits="userSpaceOnUse">
<stop offset="0.565625" stop-color="#B38ADE"/>
<stop offset="0.586458" stop-color="white"/>
</linearGradient>
<linearGradient id="paint1_linear_856_4909" x1="89.5" y1="33" x2="89.5" y2="80" gradientUnits="userSpaceOnUse">
<stop offset="0.719636" stop-color="#B38ADE"/>
<stop offset="0.769947" stop-color="white"/>
</linearGradient>
<linearGradient id="paint2_linear_856_4909" x1="102.5" y1="33" x2="102.5" y2="80" gradientUnits="userSpaceOnUse">
<stop offset="0.681981" stop-color="#B38ADE"/>
<stop offset="0.694947" stop-color="white"/>
</linearGradient>
<linearGradient id="paint3_linear_856_4909" x1="113.5" y1="33" x2="113.5" y2="80" gradientUnits="userSpaceOnUse">
<stop offset="0.608621" stop-color="#B38ADE"/>
<stop offset="0.6207" stop-color="white"/>
</linearGradient>
</defs>
</svg>
